<svg width="17" height="16" viewBox="0 0 17 16" fill="none" xmlns="http://www.w3.org/2000/svg">
<path fill-rule="evenodd" clip-rule="evenodd" d="M11.9223 6.4C11.9223 8.92473 9.75151 10.9714 7.07377 10.9714C4.39602 10.9714 2.22528 8.92473 2.22528 6.4C2.22528 3.87527 4.39602 1.82857 7.07377 1.82857C9.75151 1.82857 11.9223 3.87527 11.9223 6.4ZM10.5589 11.8932C9.54013 12.469 8.34795 12.8 7.07377 12.8C3.32493 12.8 0.285889 9.93462 0.285889 6.4C0.285889 2.86538 3.32493 0 7.07377 0C10.8226 0 13.8616 2.86538 13.8616 6.4C13.8616 8.07096 13.1825 9.59236 12.0702 10.7322L16.0019 14.4392C16.3806 14.7963 16.3806 15.3752 16.0019 15.7322C15.6232 16.0893 15.0092 16.0893 14.6305 15.7322L10.5589 11.8932Z" fill="#B3B3B3"/>
</svg>
